<svg width="16" height="16" viewBox="0 0 16 16" fill="none" xmlns="http://www.w3.org/2000/svg">
<path d="M12.3808 9.90911C12.1835 10.1003 12.0929 10.3767 12.1378 10.6479L12.8149 14.395C12.872 14.7126 12.738 15.034 12.4722 15.2176C12.2117 15.408 11.8652 15.4308 11.5811 15.2785L8.20794 13.5192C8.09065 13.4567 7.96042 13.4232 7.82714 13.4194H7.62074C7.54915 13.4301 7.47908 13.4529 7.41511 13.488L4.04118 15.2557C3.87439 15.3394 3.68551 15.3691 3.50044 15.3394C3.04956 15.2541 2.74873 14.8246 2.8226 14.3714L3.50044 10.6243C3.54537 10.3509 3.45474 10.0729 3.25748 9.87865L0.507311 7.21299C0.277305 6.98983 0.197336 6.65472 0.302438 6.35236C0.404494 6.05076 0.664964 5.83065 0.979509 5.78115L4.76471 5.23202C5.05259 5.20232 5.30545 5.02715 5.43492 4.7682L7.10285 1.34854C7.14245 1.27238 7.19348 1.20231 7.25517 1.1429L7.32371 1.08959C7.35951 1.04998 7.40064 1.01723 7.44633 0.990577L7.52935 0.960113L7.65882 0.906799H7.97946C8.26582 0.936502 8.51792 1.10787 8.64968 1.36377L10.3397 4.7682C10.4615 5.01725 10.6984 5.19013 10.9718 5.23202L14.757 5.78115C15.0769 5.82685 15.3442 6.04771 15.4501 6.35236C15.5499 6.65777 15.4638 6.99288 15.2292 7.21299L12.3808 9.90911Z" fill="#F6B76F"/>
</svg>
